<svg width="1440" height="839" viewBox="0 0 1440 839" fill="none" xmlns="http://www.w3.org/2000/svg">
<g clip-path="url(#clip0)">
<rect width="1440" height="838.05" fill="white"/>
<rect opacity="0.9" x="-1" width="1441" height="838" fill="url(#paint0_linear)"/>
<g opacity="0.102283">
<path fill-rule="evenodd" clip-rule="evenodd" d="M1189.73 1063.51L1196.35 1094.54L1446.79 1041.46L1440.17 1010.44L1659.31 963.993L1553.48 467.541C1549.84 450.475 1534.34 439.166 1518.69 442.483L886.324 576.502C870.672 579.819 861.126 596.436 864.764 613.502L970.599 1109.96L1189.73 1063.51L1189.73 1063.51Z" fill="#FFBCBC"/>
<path d="M885.7 576.635L842.846 585.717C826.011 589.285 815.234 606.261 818.897 623.442L925.446 1123.25L971.359 1113.52L864.81 613.712C861.149 596.53 870.394 579.878 885.7 576.635Z" fill="white"/>
<path fill-rule="evenodd" clip-rule="evenodd" d="M1445.2 1060.94L1196.56 1113.64C1187.23 1115.61 1179.68 1110.67 1177.68 1101.27L1174.34 1085.61L925.7 1138.3C916.376 1140.28 908.825 1135.33 906.822 1125.94L886.789 1031.97C884.786 1022.57 889.666 1014.99 898.99 1013.01C908.314 1011.04 915.865 1015.98 917.868 1025.38L934.562 1103.69L1183.2 1050.99C1192.53 1049.01 1200.08 1053.96 1202.08 1063.36L1205.42 1079.02L1422.98 1032.91L1419.65 1017.25C1417.64 1007.85 1422.52 1000.27 1431.85 998.295L1680.49 945.599L1576.99 460.095C1574.99 450.698 1567.44 445.751 1558.11 447.728L843.262 599.228C833.938 601.204 829.058 608.785 831.061 618.182L891.158 900.088C893.162 909.485 888.282 917.066 878.958 919.043C869.633 921.019 862.083 916.072 860.079 906.675L799.982 624.769C794.306 598.144 810.168 573.503 836.587 567.904L1551.43 416.404C1577.85 410.805 1602.39 426.883 1608.07 453.508L1714.91 954.675C1716.91 964.072 1712.03 971.653 1702.71 973.629L1454.07 1026.33L1457.4 1041.99C1459.41 1051.38 1454.53 1058.96 1445.2 1060.94Z" fill="#570025"/>
<path fill-rule="evenodd" clip-rule="evenodd" d="M944.254 851.312L1164.64 804.604L1117.8 584.863L897.409 631.57L944.254 851.312Z" fill="#EB595E"/>
<path fill-rule="evenodd" clip-rule="evenodd" d="M944.254 851.312L1118.73 814.335L1071.88 594.593L897.409 631.57L944.254 851.312Z" fill="#FF7D84"/>
<path fill-rule="evenodd" clip-rule="evenodd" d="M1517.44 825.53L1282.47 875.329C1273.07 877.321 1265.63 873.155 1263.88 864.915C1262.12 856.674 1267.22 849.853 1276.61 847.861L1511.59 798.062C1520.99 796.07 1528.42 800.236 1530.18 808.476C1531.94 816.717 1526.84 823.538 1517.44 825.53Z" fill="#570025"/>
<path fill-rule="evenodd" clip-rule="evenodd" d="M1551.87 626.842L1316.9 676.641C1307.5 678.633 1300.06 674.468 1298.3 666.227C1296.55 657.986 1301.64 651.165 1311.04 649.173L1546.01 599.375C1555.41 597.383 1562.85 601.548 1564.61 609.789C1566.36 618.029 1561.27 624.85 1551.87 626.842Z" fill="#570025"/>
<path fill-rule="evenodd" clip-rule="evenodd" d="M1571.75 718.325L1418.7 750.761C1409.51 752.707 1402.22 748.511 1400.47 740.271C1398.71 732.03 1403.66 725.239 1412.84 723.293L1565.89 690.857C1575.07 688.911 1582.37 693.107 1584.12 701.348C1585.88 709.588 1580.93 716.379 1571.75 718.325Z" fill="#570025"/>
<path fill-rule="evenodd" clip-rule="evenodd" d="M1295.5 776.872L1263.36 783.684C1253.71 785.727 1246.11 781.596 1244.36 773.355C1242.6 765.115 1247.86 758.259 1257.5 756.216L1289.64 749.404C1299.28 747.361 1306.88 751.492 1308.64 759.732C1310.39 767.973 1305.14 774.828 1295.5 776.872Z" fill="#570025"/>
<path fill-rule="evenodd" clip-rule="evenodd" d="M1458.89 550.852L1223.91 600.651C1214.52 602.643 1207.08 598.477 1205.32 590.237C1203.57 581.996 1208.66 575.175 1218.06 573.183L1453.03 523.384C1462.43 521.392 1469.87 525.558 1471.62 533.798C1473.38 542.039 1468.29 548.86 1458.89 550.852Z" fill="#570025"/>
<path fill-rule="evenodd" clip-rule="evenodd" d="M1186.84 818.947L938.899 871.647L886.353 624.438L1134.29 571.738L1186.84 818.947ZM963.325 834.16L1149.28 794.635L1109.87 609.227L923.915 648.752L963.325 834.16Z" fill="#570025"/>
</g>
<g opacity="0.102283">
<path fill-rule="evenodd" clip-rule="evenodd" d="M82.9067 169.911H132.284V219.288H82.9067V169.911Z" fill="#FFBCBC"/>
<path fill-rule="evenodd" clip-rule="evenodd" d="M-15.8472 169.911H33.5304V219.288H-15.8472V169.911Z" fill="#FFBCBC"/>
<path fill-rule="evenodd" clip-rule="evenodd" d="M161.911 90.907H211.288V140.285H161.911V90.907Z" fill="#FFBCBC"/>
<path fill-rule="evenodd" clip-rule="evenodd" d="M161.911 -7.84814H211.288V41.5295H161.911V-7.84814Z" fill="#FFBCBC"/>
<path fill-rule="evenodd" clip-rule="evenodd" d="M-142.581 -134.58H163.58V171.58H-142.581V-134.58Z" fill="#EB595E"/>
<path fill-rule="evenodd" clip-rule="evenodd" d="M-97.2231 -89.2231H112.554V120.554H-97.2231V-89.2231Z" fill="#FFBCBC"/>
<path fill-rule="evenodd" clip-rule="evenodd" d="M111.528 -100.562H-96.1979C-103.027 -100.562 -108.562 -95.0274 -108.562 -88.1979V119.528C-108.562 126.358 -103.027 131.893 -96.1979 131.893H111.528C118.358 131.893 123.893 126.358 123.893 119.528V-88.1979C123.893 -95.0274 118.358 -100.562 111.528 -100.562ZM99.1642 107.164H-83.8326V-75.8326H99.1642V107.164Z" fill="#570025"/>
<path fill-rule="evenodd" clip-rule="evenodd" d="M-45.1556 29.8392H60.4861C67.3241 29.8392 72.8661 24.7631 72.8661 18.4999C72.8661 12.2367 67.3241 7.16064 60.4861 7.16064H-45.1556C-51.9936 7.16064 -57.5356 12.2367 -57.5356 18.4999C-57.5356 24.7631 -51.9936 29.8392 -45.1556 29.8392Z" fill="#570025"/>
<path fill-rule="evenodd" clip-rule="evenodd" d="M4.8305 58.1875C1.84951 58.1875 -1.07833 59.4012 -3.18673 61.5096C-5.29513 63.618 -6.50879 66.5458 -6.50879 69.5268C-6.50879 72.5078 -5.29513 75.4356 -3.18673 77.544C-1.07833 79.6524 1.84951 80.8661 4.8305 80.8661C7.81149 80.8661 10.7393 79.6524 12.8477 77.544C14.9694 75.4356 16.1698 72.5078 16.1698 69.5268C16.1698 66.5458 14.9694 63.618 12.8477 61.5096C10.7393 59.4012 7.81149 58.1875 4.8305 58.1875Z" fill="#570025"/>
<path fill-rule="evenodd" clip-rule="evenodd" d="M61.5268 58.1875C58.5458 58.1875 55.618 59.4012 53.5096 61.5096C51.4012 63.618 50.1875 66.5458 50.1875 69.5268C50.1875 72.5078 51.4012 75.4356 53.5096 77.544C55.618 79.6524 58.5458 80.8661 61.5268 80.8661C64.5078 80.8661 67.4356 79.6524 69.544 77.544C71.6524 75.4356 72.8661 72.5078 72.8661 69.5268C72.8661 66.5458 71.6524 63.618 69.544 61.5096C67.4356 59.4012 64.5078 58.1875 61.5268 58.1875Z" fill="#570025"/>
<path fill-rule="evenodd" clip-rule="evenodd" d="M213.898 55.707C220.749 55.707 226.301 50.1551 226.301 43.3047V31.0622H315.598C322.448 31.0622 328 25.5054 328 18.6599C328 11.8095 322.448 6.25754 315.598 6.25754H226.301V-6.30469C226.301 -13.155 220.749 -18.707 213.898 -18.707H176.691V-43.5117H213.898C220.749 -43.5117 226.301 -49.0637 226.301 -55.9141V-68.3164H284.592C291.442 -68.3164 296.994 -73.8684 296.994 -80.7188V-109.244H315.598C322.448 -109.244 328 -114.796 328 -121.646C328 -128.497 322.448 -134.049 315.598 -134.049H284.592C277.741 -134.049 272.189 -128.497 272.189 -121.646V-93.1211H226.301V-105.523C226.301 -112.374 220.749 -117.926 213.898 -117.926H176.691V-135.289C176.691 -142.139 171.139 -147.691 164.289 -147.691H146.926V-184.898C146.926 -191.749 141.374 -197.301 134.523 -197.301H122.121V-243.189H150.646C157.497 -243.189 163.049 -248.741 163.049 -255.592V-286.598C163.049 -293.448 157.497 -299 150.646 -299C143.796 -299 138.244 -293.448 138.244 -286.598V-267.994H109.719C102.868 -267.994 97.3164 -262.442 97.3164 -255.592V-197.301H84.9141C78.0637 -197.301 72.5117 -191.749 72.5117 -184.898V-147.691H47.707V-184.898C47.707 -191.749 42.1551 -197.301 35.3047 -197.301H23.0622V-236.887C23.0622 -243.732 17.5054 -249.289 10.6599 -249.289C3.80951 -249.289 -1.74246 -243.732 -1.74246 -236.887V-197.301H-14.3047C-21.155 -197.301 -26.707 -191.749 -26.707 -184.898V-147.691H-51.5117V-184.898C-51.5117 -191.749 -57.0637 -197.301 -63.9141 -197.301H-76.3164V-255.592C-76.3164 -262.442 -81.8684 -267.994 -88.7188 -267.994H-117.244V-286.598C-117.244 -293.448 -122.796 -299 -129.646 -299C-136.497 -299 -142.049 -293.448 -142.049 -286.598V-255.592C-142.049 -248.741 -136.497 -243.189 -129.646 -243.189H-101.121V-197.301H-113.523C-120.374 -197.301 -125.926 -191.749 -125.926 -184.898V-147.691H-143.289C-150.139 -147.691 -155.691 -142.139 -155.691 -135.289V-117.926H-192.898C-199.749 -117.926 -205.301 -112.374 -205.301 -105.523V-93.1211H-251.189V-121.646C-251.189 -128.497 -256.741 -134.049 -263.592 -134.049H-294.598C-301.448 -134.049 -307 -128.497 -307 -121.646C-307 -114.796 -301.448 -109.244 -294.598 -109.244H-275.994V-80.7188C-275.994 -73.8684 -270.442 -68.3164 -263.592 -68.3164H-205.301V-55.9141C-205.301 -49.0637 -199.749 -43.5117 -192.898 -43.5117H-155.691V-18.707H-192.898C-199.749 -18.707 -205.301 -13.155 -205.301 -6.30469V6.25754H-294.598C-301.448 6.25754 -307 11.8095 -307 18.6599C-307 25.5054 -301.448 31.0622 -294.598 31.0622H-205.301V43.3047C-205.301 50.1551 -199.749 55.707 -192.898 55.707H-155.691V80.5117H-192.898C-199.749 80.5117 -205.301 86.0637 -205.301 92.9141V105.316H-263.592C-270.442 105.316 -275.994 110.868 -275.994 117.719V146.244H-294.598C-301.448 146.244 -307 151.796 -307 158.646C-307 165.497 -301.448 171.049 -294.598 171.049H-263.592C-256.741 171.049 -251.189 165.497 -251.189 158.646V130.121H-205.301V142.523C-205.301 149.374 -199.749 154.926 -192.898 154.926H-155.691V172.289C-155.691 179.139 -150.139 184.691 -143.289 184.691H-125.926V221.898C-125.926 228.749 -120.374 234.301 -113.523 234.301H-101.121V280.189H-129.646C-136.497 280.189 -142.049 285.741 -142.049 292.592V323.598C-142.049 330.448 -136.497 336 -129.646 336C-122.796 336 -117.244 330.448 -117.244 323.598V304.994H-88.7188C-81.8684 304.994 -76.3164 299.442 -76.3164 292.592V234.301H-63.9141C-57.0637 234.301 -51.5117 228.749 -51.5117 221.898V184.691H-26.707V221.898C-26.707 228.749 -21.155 234.301 -14.3047 234.301H-1.74246V323.598C-1.74246 330.448 3.80951 336 10.6599 336C17.5054 336 23.0622 330.448 23.0622 323.598V234.301H35.3047C42.1551 234.301 47.707 228.749 47.707 221.898V184.691H72.5117V221.898C72.5117 228.749 78.0637 234.301 84.9141 234.301H97.3164V292.592C97.3164 299.442 102.868 304.994 109.719 304.994H138.244V323.598C138.244 330.448 143.796 336 150.646 336C157.497 336 163.049 330.448 163.049 323.598V292.592C163.049 285.741 157.497 280.189 150.646 280.189H122.121V234.301H134.523C141.374 234.301 146.926 228.749 146.926 221.898V184.691H164.289C171.139 184.691 176.691 179.139 176.691 172.289V154.926H213.898C220.749 154.926 226.301 149.374 226.301 142.523V130.121H272.189V158.646C272.189 165.497 277.741 171.049 284.592 171.049H315.598C322.448 171.049 328 165.497 328 158.646C328 151.796 322.448 146.244 315.598 146.244H296.994V117.719C296.994 110.868 291.442 105.316 284.592 105.316H226.301V92.9141C226.301 86.0637 220.749 80.5117 213.898 80.5117H176.691V55.707H213.898ZM201.496 6.09766V30.9023H176.691V6.09766H201.496ZM201.496 -93.1211V-68.3164H176.691V-93.1211H201.496ZM97.3164 -172.496H122.121V-147.691H97.3164V-172.496ZM-1.90234 -172.496H22.9023V-147.691H-1.90234V-172.496ZM-101.121 -172.496H-76.3164V-147.691H-101.121V-172.496ZM-180.496 -68.3164V-93.1211H-155.691V-68.3164H-180.496ZM-180.496 30.9023V6.09766H-155.691V30.9023H-180.496ZM-180.496 130.121V105.316H-155.691V130.121H-180.496ZM-76.3164 209.496H-101.121V184.691H-76.3164V209.496ZM22.9023 209.496H-1.90234V184.691H22.9023V209.496ZM122.121 209.496H97.3164V184.691H122.121V209.496ZM151.887 159.887H-130.887V-122.887H151.887V159.887ZM201.496 105.316V130.121H176.691V105.316H201.496Z" fill="#570025"/>
</g>
<g opacity="0.102283">
<path fill-rule="evenodd" clip-rule="evenodd" d="M1948.24 -194.178C1976.88 -132.542 1950.31 -59.3151 1888.92 -30.5692C1881.22 -26.9624 1833.11 -4.44177 1444.32 177.542C1423.86 187.124 1399.53 178.218 1389.99 157.681L1303.6 -28.2726L1896.4 -305.756L1948.24 -194.178Z" fill="#FFBCBC"/>
<path fill-rule="evenodd" clip-rule="evenodd" d="M1307.79 -27.3838L1393.08 162.012L1319.92 197.351C1299.7 207.11 1275.7 198.061 1266.28 177.122L1198.04 25.6149C1191.66 11.4677 1193.6 -4.47761 1201.77 -16.3484C1236.09 -7.78155 1273.32 -10.7284 1307.79 -27.3838Z" fill="#EB595E"/>
<path fill-rule="evenodd" clip-rule="evenodd" d="M1169.12 -2.81677C1166.92 9.53085 1168.44 22.4677 1173.9 34.1808L1243.54 183.619C1257.91 214.499 1294.56 228.049 1325.65 213.545L1384.82 185.922C1402.59 204.073 1430.61 210.057 1455.05 198.645L1623.04 120.241L1696.56 278.029C1713.4 314.186 1750.03 337.549 1789.88 337.549H1956.14C1965.71 384.535 2007.32 420 2057.05 420H2098.24C2109.61 420 2118.84 410.771 2118.84 399.388V110.809C2118.84 99.4251 2109.61 90.1963 2098.24 90.1963H2057.05C2007.32 90.1963 1965.71 125.661 1956.14 172.648H1829.26L1772.37 50.5475L1903.03 -10.4326C1975.07 -44.0703 2006.35 -130.094 1972.75 -202.192C1970.26 -207.537 1906.84 -343.668 1903.12 -351.632C1869.46 -423.905 1783.76 -455.137 1711.54 -421.423L1076.89 -125.236C1071.94 -122.925 1068.11 -118.741 1066.24 -113.601C1064.37 -108.464 1064.62 -102.795 1066.93 -97.8383C1087.58 -53.5237 1124.13 -19.8344 1169.12 -2.81677ZM1308.25 176.185C1297.92 181.005 1285.69 176.557 1280.87 166.204L1211.23 16.7551C1209.86 13.8217 1209.27 10.6575 1209.36 7.51602C1239.04 11.7328 1267.67 8.59134 1294.13 -0.414978L1364.23 150.047L1308.25 176.185ZM2057.05 131.422H2077.65V378.776H2057.05C2022.98 378.776 1995.26 351.036 1995.26 316.937V193.259C1995.27 159.164 2022.98 131.422 2057.05 131.422ZM1797.48 201.973C1800.86 209.232 1808.14 213.875 1816.14 213.875H1954.07V296.327H1789.88C1765.98 296.327 1744 282.308 1733.89 260.612L1660.38 102.821L1735.04 67.9717L1797.48 201.973ZM1885.62 -47.7917L1437.64 161.286C1427.31 166.106 1415.07 161.609 1410.27 151.301L1331.94 -16.832L1891.9 -278.178L1935.43 -184.767C1959.42 -133.267 1937.08 -71.8195 1885.62 -47.7917ZM1728.96 -384.062C1780.53 -408.139 1841.74 -385.844 1865.79 -334.212L1874.49 -315.542L1295.86 -45.4844C1295.86 -45.4844 1295.86 -45.4844 1295.86 -45.4824C1230.18 -14.8172 1152.97 -37.8501 1114.29 -97.2027L1728.96 -384.062Z" fill="#570025"/>
</g>
</g>
<defs>
<linearGradient id="paint0_linear" x1="152.5" y1="-105.5" x2="1515.97" y2="26.3379" gradientUnits="userSpaceOnUse">
<stop offset="0.00359712" stop-color="#C92C56"/>
<stop offset="1" stop-color="#5D012A"/>
</linearGradient>
<clipPath id="clip0">
<rect width="1440" height="838.05" fill="white"/>
</clipPath>
</defs>
</svg>
